<mxfile host="Electron" agent="Mozilla/5.0 (Macintosh; Intel Mac OS X 10_15_7) AppleWebKit/537.36 (KHTML, like Gecko) draw.io/26.1.1 Chrome/132.0.6834.210 Electron/34.3.3 Safari/537.36" version="26.1.1">
  <diagram name="PÃ gina-1" id="oy8qX8HP7gqxA2Tt80Pt">
    <mxGraphModel dx="596" dy="588" grid="1" gridSize="5" guides="1" tooltips="1" connect="1" arrows="1" fold="1" page="1" pageScale="1" pageWidth="827" pageHeight="1169" math="0" shadow="0">
      <root>
        <mxCell id="0" />
        <mxCell id="1" parent="0" />
        <mxCell id="RuAcS0BkeenV3SlfDcj3-4" value="AIRPORT" style="whiteSpace=wrap;html=1;align=center;fontSize=10;" parent="1" vertex="1">
          <mxGeometry x="200" y="20" width="94" height="40" as="geometry" />
        </mxCell>
        <mxCell id="RuAcS0BkeenV3SlfDcj3-3" style="edgeStyle=orthogonalEdgeStyle;rounded=0;orthogonalLoop=1;jettySize=auto;html=1;endArrow=ERone;endFill=0;exitX=0;exitY=0.5;exitDx=0;exitDy=0;entryX=1;entryY=0.5;entryDx=0;entryDy=0;" parent="1" source="RuAcS0BkeenV3SlfDcj3-2" target="RuAcS0BkeenV3SlfDcj3-8" edge="1">
          <mxGeometry relative="1" as="geometry">
            <Array as="points">
              <mxPoint x="145" y="40" />
              <mxPoint x="145" y="40" />
            </Array>
            <mxPoint x="180" y="5.030000000000001" as="sourcePoint" />
            <mxPoint x="140" y="5.030000000000001" as="targetPoint" />
          </mxGeometry>
        </mxCell>
        <mxCell id="jBT95FDjYHQ6EW9C_Phd-5" value="1" style="edgeLabel;html=1;align=center;verticalAlign=bottom;resizable=0;points=[];labelPosition=center;verticalLabelPosition=top;labelBackgroundColor=none;" parent="RuAcS0BkeenV3SlfDcj3-3" vertex="1" connectable="0">
          <mxGeometry x="0.8207" relative="1" as="geometry">
            <mxPoint x="7" as="offset" />
          </mxGeometry>
        </mxCell>
        <mxCell id="RuAcS0BkeenV3SlfDcj3-2" value="&lt;span style=&quot;text-align: left;&quot;&gt;IS LOCATED IN&lt;/span&gt;" style="shape=rhombus;perimeter=rhombusPerimeter;html=1;align=center;fontSize=10;labelPosition=center;verticalLabelPosition=top;verticalAlign=bottom;" parent="1" vertex="1">
          <mxGeometry x="140" y="25" width="30" height="30" as="geometry" />
        </mxCell>
        <mxCell id="RuAcS0BkeenV3SlfDcj3-6" style="edgeStyle=orthogonalEdgeStyle;rounded=0;orthogonalLoop=1;jettySize=auto;html=1;endArrow=oval;startFill=0;startArrow=none;curved=0;endFill=0;exitX=1;exitY=0.5;exitDx=0;exitDy=0;entryX=0;entryY=0.5;entryDx=0;entryDy=0;" parent="1" source="RuAcS0BkeenV3SlfDcj3-2" target="RuAcS0BkeenV3SlfDcj3-4" edge="1">
          <mxGeometry relative="1" as="geometry">
            <mxPoint x="310" y="-50" as="sourcePoint" />
          </mxGeometry>
        </mxCell>
        <mxCell id="jBT95FDjYHQ6EW9C_Phd-6" value="N" style="edgeLabel;html=1;align=center;verticalAlign=bottom;resizable=0;points=[];labelPosition=center;verticalLabelPosition=top;labelBackgroundColor=none;" parent="RuAcS0BkeenV3SlfDcj3-6" vertex="1" connectable="0">
          <mxGeometry x="-0.2769" y="2" relative="1" as="geometry">
            <mxPoint x="6" y="2" as="offset" />
          </mxGeometry>
        </mxCell>
        <mxCell id="RuAcS0BkeenV3SlfDcj3-8" value="COUNTRY" style="whiteSpace=wrap;html=1;align=center;fontSize=10;" parent="1" vertex="1">
          <mxGeometry x="10" y="20" width="100" height="40" as="geometry" />
        </mxCell>
        <mxCell id="BL4hU5b4o_HIqiAbAdYa-1" value="CITY" style="whiteSpace=wrap;html=1;align=center;fontSize=10;" vertex="1" parent="1">
          <mxGeometry x="13" y="150" width="94" height="40" as="geometry" />
        </mxCell>
        <mxCell id="BL4hU5b4o_HIqiAbAdYa-5" style="edgeStyle=orthogonalEdgeStyle;rounded=0;orthogonalLoop=1;jettySize=auto;html=1;entryX=0.5;entryY=1;entryDx=0;entryDy=0;endArrow=ERone;endFill=0;" edge="1" parent="1" source="BL4hU5b4o_HIqiAbAdYa-2" target="RuAcS0BkeenV3SlfDcj3-8">
          <mxGeometry relative="1" as="geometry" />
        </mxCell>
        <mxCell id="BL4hU5b4o_HIqiAbAdYa-8" value="1" style="edgeLabel;html=1;align=left;verticalAlign=middle;resizable=0;points=[];labelBackgroundColor=none;labelPosition=right;verticalLabelPosition=middle;" vertex="1" connectable="0" parent="BL4hU5b4o_HIqiAbAdYa-5">
          <mxGeometry x="0.3484" relative="1" as="geometry">
            <mxPoint as="offset" />
          </mxGeometry>
        </mxCell>
        <mxCell id="BL4hU5b4o_HIqiAbAdYa-6" style="edgeStyle=orthogonalEdgeStyle;rounded=0;orthogonalLoop=1;jettySize=auto;html=1;exitX=0.5;exitY=1;exitDx=0;exitDy=0;entryX=0.5;entryY=0;entryDx=0;entryDy=0;endArrow=ERone;endFill=0;" edge="1" parent="1" source="BL4hU5b4o_HIqiAbAdYa-2" target="BL4hU5b4o_HIqiAbAdYa-1">
          <mxGeometry relative="1" as="geometry" />
        </mxCell>
        <mxCell id="BL4hU5b4o_HIqiAbAdYa-7" value="N" style="edgeLabel;html=1;align=left;verticalAlign=middle;resizable=0;points=[];labelBackgroundColor=none;labelPosition=right;verticalLabelPosition=middle;" vertex="1" connectable="0" parent="BL4hU5b4o_HIqiAbAdYa-6">
          <mxGeometry x="0.2591" relative="1" as="geometry">
            <mxPoint as="offset" />
          </mxGeometry>
        </mxCell>
        <mxCell id="BL4hU5b4o_HIqiAbAdYa-2" value="&lt;span style=&quot;text-align: left;&quot;&gt;BELONGS TO&lt;/span&gt;" style="shape=rhombus;perimeter=rhombusPerimeter;html=1;align=left;fontSize=10;labelPosition=right;verticalLabelPosition=middle;verticalAlign=middle;" vertex="1" parent="1">
          <mxGeometry x="45" y="90" width="30" height="30" as="geometry" />
        </mxCell>
      </root>
    </mxGraphModel>
  </diagram>
</mxfile>
